HIERARCHY
ROOT Hips
{
	OFFSET 0.00000 0.00000 0.00000
	CHANNELS 6 Xposition Yposition Zposition Zrotation Yrotation Xrotation 
	JOINT LHipJoint
	{
		OFFSET 0 0 0
		CHANNELS 3 Zrotation Yrotation Xrotation
		JOINT LeftHip
		{
			OFFSET 1.53139 -1.83434 0.76626
			CHANNELS 3 Zrotation Yrotation Xrotation
			JOINT LeftKnee
			{
				OFFSET 2.56112 -7.03663 0.00000
				CHANNELS 3 Zrotation Yrotation Xrotation
				JOINT LeftAnkle
				{
					OFFSET 2.59983 -7.14299 0.00000
					CHANNELS 3 Zrotation Yrotation Xrotation
					JOINT LeftToe
					{
						OFFSET 0.13742 -0.37757 2.00054
						CHANNELS 3 Zrotation Yrotation Xrotation
						End Site
						{
							OFFSET 0.00000 -0.00000 1.02897
						}
					}
				}
			}
		}
	}
	JOINT RHipJoint
	{
		OFFSET 0 0 0
		CHANNELS 3 Zrotation Yrotation Xrotation
		JOINT RightHip
		{
			OFFSET -1.40122 -1.83435 0.76627
			CHANNELS 3 Zrotation Yrotation Xrotation
			JOINT RightKnee
			{
				OFFSET -2.54052 -6.98003 0.00000
				CHANNELS 3 Zrotation Yrotation Xrotation
				JOINT RightAnkle
				{
					OFFSET -2.63179 -7.23079 0.00000
					CHANNELS 3 Zrotation Yrotation Xrotation
					JOINT RightToe
					{
						OFFSET -0.24131 -0.66299 2.03908
						CHANNELS 3 Zrotation Yrotation Xrotation
						End Site
						{
							OFFSET -0.00000 -0.00000 1.07391
						}
					}
				}
			}
		}
	}
	JOINT lowerback
	{
		OFFSET 0 0 0
		CHANNELS 3 Zrotation Yrotation Xrotation
		JOINT Chest
		{
			OFFSET 0.01174 2.10302 -0.29778
			CHANNELS 3 Zrotation Yrotation Xrotation
			JOINT Chest2
			{
				OFFSET 0.00772 2.13227 -0.01247
				CHANNELS 3 Zrotation Yrotation Xrotation
				JOINT lowerneck
				{
					OFFSET 0 0 0
					CHANNELS 3 Zrotation Yrotation Xrotation
					JOINT Neck
					{
						OFFSET -0.09219 1.60848 0.31481
						CHANNELS 3 Zrotation Yrotation Xrotation
						JOINT Head
						{
							OFFSET 0.13974 1.65456 -0.31134
							CHANNELS 3 Zrotation Yrotation Xrotation
							End Site
							{
								OFFSET 0.04742 1.69515 -0.14578
							}
						}
					}
				}
				JOINT LeftCollar
				{
					OFFSET 0 0 0
					CHANNELS 3 Zrotation Yrotation Xrotation
					JOINT LeftShoulder
					{
						OFFSET 3.24909 1.02882 -0.23993
CHANNELS 3 Zrotation Xrotation Yrotation
						JOINT LeftElbow
						{
OFFSET 0 -5.329550 -0.000000
CHANNELS 3 Zrotation Xrotation Yrotation
							JOINT LeftWrist
							{
OFFSET 0 -3.692320 -0.000000
CHANNELS 3 Zrotation Xrotation Yrotation
								JOINT lhand
								{
									OFFSET 0 0 0
CHANNELS 3 Zrotation Xrotation Yrotation
									JOINT LFingers
									{
OFFSET 0 -0.536600 -0.000000
CHANNELS 3 Zrotation Xrotation Yrotation
										End Site
										{
OFFSET 0 -0.432620 -0.000000
										}
									}
								}
								JOINT LThumb
								{
OFFSET 0 0.000000 0.000000
CHANNELS 3 Zrotation Xrotation Yrotation
									End Site
									{
OFFSET 0 -0.439220 0.439220
									}
								}
							}
						}
					}
				}
				JOINT RightCollar
				{
					OFFSET 0 0 0
					CHANNELS 3 Zrotation Yrotation Xrotation
					JOINT RightShoulder
					{
						OFFSET -3.21387 0.93002 -0.34594
CHANNELS 3 Zrotation Xrotation Yrotation
						JOINT RightElbow
						{
OFFSET 0 -5.234310 0.000000
CHANNELS 3 Zrotation Xrotation Yrotation
							JOINT RightWrist
							{
OFFSET 0 -3.553010 -0.000000
CHANNELS 3 Zrotation Xrotation Yrotation
								JOINT rhand
								{
									OFFSET 0 0 0
CHANNELS 3 Zrotation Xrotation Yrotation
									JOINT RFingers
									{
OFFSET 0 -0.772520 -0.000000
CHANNELS 3 Zrotation Xrotation Yrotation
										End Site
										{
OFFSET 0 -0.622830 -0.000000
										}
									}
								}
								JOINT RThumb
								{
OFFSET 0 0.000000 0.000000
CHANNELS 3 Zrotation Xrotation Yrotation
									End Site
									{
OFFSET 0 -0.632340 0.632340
									}
								}
							}
						}
					}
				}
			}
		}
	}
}
MOTION
Frames: 4
Frame Time: 0.008333333333333333
12.335200 17.966200 -18.727300 4.307800 3.292800 0.677800 0.000000 0.000000 0.000000 -25.742400 1.691900 16.281400 0.606700 4.985700 13.867800 -0.141500 -7.094200 5.213900 1.679800 -8.164600 -23.215300 0.000000 0.000000 0.000000 17.752000 6.164000 -22.248300 -1.921900 -8.701400 24.865700 -0.004200 -0.867900 -1.848400 -0.338500 -3.738800 10.342900 -4.194000 -0.775700 11.196500 0.274800 -1.535600 0.937500 2.889300 -0.660100 -5.181400 -13.772300 -7.810300 -20.870100 10.983100 -9.864000 26.645800 4.866000 -4.305900 13.837200 -0.000000 0.000000 0.000000 3.351300 -1.321800 -23.056000 22.030700 -33.011700 6.602600 23.199400 11.769000 -24.289700 0.000000 0.000000 0.000000 -7.125000 0.000000 0.000000 -6.750500 56.003900 1.828200 -0.000000 0.000000 0.000000 0.368900 4.182100 2.467600 -11.632000 -19.250400 -1.979300 -14.689200 13.354300 -7.011000 0.000000 0.000000 0.000000 7.125000 0.000000 -0.000000 8.849000 22.757700 4.792700
12.322893 17.983560 -18.628195 4.183562 3.222455 0.639907 0.000000 0.000000 0.000000 -25.627749 1.284662 15.444577 0.799275 5.680991 15.868105 -0.124399 -7.073537 6.072099 1.566315 -7.894360 -22.395253 0.000000 0.000000 0.000000 18.042061 5.811108 -21.854600 -1.899941 -8.654438 24.720216 -0.009252 -0.491624 -2.075435 -0.338694 -3.739836 10.345750 -4.065552 -0.747134 11.192354 0.294815 -1.480282 0.943459 2.829383 -0.635680 -5.179781 -13.839601 -7.861342 -20.998224 11.048846 -9.932920 26.785778 4.894371 -4.330579 13.944272 0.000000 0.000000 0.000000 3.246106 -1.130909 -22.886873 21.767262 -32.712247 6.459902 23.221877 12.050057 -24.738523 0.000000 0.000000 0.000000 -7.125000 0.000000 0.000000 -6.908680 56.474812 1.951142 0.000000 0.000000 0.000000 0.423570 4.190650 2.503939 -11.620600 -19.233170 -1.975543 -14.736874 13.219763 -7.010806 0.000000 0.000000 0.000000 7.125000 0.000000 0.000000 8.814216 22.756081 4.773721
12.309463 18.000653 -18.530065 4.029628 3.153912 0.592853 0.000000 0.000000 0.000000 -25.449153 0.932681 14.585355 1.004733 6.359114 17.836497 -0.103044 -7.091938 7.042496 1.459301 -7.632631 -21.604815 0.000000 0.000000 0.000000 18.371304 5.460048 -21.466603 -1.879844 -8.611200 24.586463 -0.014039 -0.097973 -2.286218 -0.338032 -3.736145 10.335421 -3.936011 -0.724479 11.176271 0.339120 -1.430934 0.947439 2.794968 -0.614067 -5.172399 -13.844169 -7.883220 -21.069998 11.053455 -9.964076 26.873602 4.893046 -4.341872 14.002618 0.000000 0.000000 0.000000 3.130363 -0.904707 -22.746410 21.531836 -32.443466 6.332982 23.244354 12.296748 -25.121925 0.000000 0.000000 0.000000 -7.125000 0.000000 0.000000 -7.042747 56.877435 2.057330 0.000000 0.000000 0.000000 0.453211 4.218939 2.533274 -11.628229 -19.244721 -1.978051 -14.716821 13.158479 -6.961382 0.000000 0.000000 0.000000 7.125000 0.000000 0.000000 8.831025 22.807177 4.772472
12.294694 18.017430 -18.433097 3.840291 3.087518 0.534880 0.000000 0.000000 0.000000 -25.194330 0.646571 13.699432 1.225550 7.016770 19.766846 -0.076616 -7.156907 8.146645 1.360002 -7.381046 -20.849672 0.000000 0.000000 0.000000 18.747256 5.111172 -21.085404 -1.861967 -8.572400 24.466695 -0.018508 0.316390 -2.477627 -0.336348 -3.726817 10.309382 -3.805166 -0.708868 11.145956 0.412380 -1.388701 0.949058 2.790952 -0.595801 -5.158149 -13.773953 -7.870330 -21.074597 10.985183 -9.950215 26.899252 4.856318 -4.337209 14.002877 0.000000 0.000000 0.000000 3.002044 -0.636411 -22.640115 21.329804 -32.211249 6.224873 23.266830 12.502473 -25.427337 0.000000 0.000000 0.000000 -7.125000 0.000000 0.000000 -7.148071 57.198652 2.143545 0.000000 0.000000 0.000000 0.453017 4.270759 2.554261 -11.658544 -19.290581 -1.988026 -14.616032 13.184518 -6.853273 0.000000 0.000000 0.000000 7.125000 0.000000 0.000000 8.909338 22.921116 4.792357
